<mxfile host="Electron" agent="Mozilla/5.0 (Windows NT 10.0; Win64; x64) AppleWebKit/537.36 (KHTML, like Gecko) draw.io/24.7.5 Chrome/126.0.6478.183 Electron/31.3.0 Safari/537.36" version="24.7.5">
  <diagram name="Page-1" id="lpnLTRdYzm4OXFZ6302t">
    <mxGraphModel dx="1387" dy="820" grid="1" gridSize="10" guides="1" tooltips="1" connect="1" arrows="1" fold="1" page="1" pageScale="1" pageWidth="1169" pageHeight="827" math="0" shadow="0">
      <root>
        <mxCell id="0" />
        <mxCell id="1" parent="0" />
        <mxCell id="-fAjT1t3zxda8JAW4F-a-38" value="OpenNMS Instance 1" style="rounded=1;whiteSpace=wrap;html=1;fillColor=none;dashed=1;verticalAlign=bottom;" parent="1" vertex="1">
          <mxGeometry x="730" y="310" width="430" height="490" as="geometry" />
        </mxCell>
        <mxCell id="-fAjT1t3zxda8JAW4F-a-29" style="edgeStyle=orthogonalEdgeStyle;rounded=0;orthogonalLoop=1;jettySize=auto;html=1;" parent="1" source="-fAjT1t3zxda8JAW4F-a-1" target="-fAjT1t3zxda8JAW4F-a-14" edge="1">
          <mxGeometry relative="1" as="geometry" />
        </mxCell>
        <mxCell id="-fAjT1t3zxda8JAW4F-a-30" style="edgeStyle=orthogonalEdgeStyle;rounded=0;orthogonalLoop=1;jettySize=auto;html=1;entryX=0;entryY=0.5;entryDx=0;entryDy=0;" parent="1" source="-fAjT1t3zxda8JAW4F-a-1" target="-fAjT1t3zxda8JAW4F-a-25" edge="1">
          <mxGeometry relative="1" as="geometry" />
        </mxCell>
        <mxCell id="-fAjT1t3zxda8JAW4F-a-1" value="core" style="rounded=1;whiteSpace=wrap;html=1;verticalAlign=bottom;" parent="1" vertex="1">
          <mxGeometry x="770" y="400" width="110" height="240" as="geometry" />
        </mxCell>
        <mxCell id="-fAjT1t3zxda8JAW4F-a-7" value="pris" style="rounded=1;whiteSpace=wrap;html=1;verticalAlign=bottom;" parent="1" vertex="1">
          <mxGeometry x="440" y="670" width="120" height="80" as="geometry" />
        </mxCell>
        <mxCell id="-fAjT1t3zxda8JAW4F-a-8" value="cityFibre&lt;div&gt;Mapper&lt;/div&gt;" style="rounded=1;whiteSpace=wrap;html=1;" parent="1" vertex="1">
          <mxGeometry x="455" y="680" width="90" height="40" as="geometry" />
        </mxCell>
        <mxCell id="-fAjT1t3zxda8JAW4F-a-9" value="cityFibre inventory&amp;nbsp;&lt;div&gt;.csv&lt;/div&gt;" style="shape=note;whiteSpace=wrap;html=1;backgroundOutline=1;darkOpacity=0.05;size=18;" parent="1" vertex="1">
          <mxGeometry x="355" y="730" width="80" height="55" as="geometry" />
        </mxCell>
        <mxCell id="-fAjT1t3zxda8JAW4F-a-12" style="edgeStyle=orthogonalEdgeStyle;rounded=0;orthogonalLoop=1;jettySize=auto;html=1;entryX=-0.009;entryY=0.833;entryDx=0;entryDy=0;entryPerimeter=0;" parent="1" source="-fAjT1t3zxda8JAW4F-a-7" target="-fAjT1t3zxda8JAW4F-a-1" edge="1">
          <mxGeometry relative="1" as="geometry" />
        </mxCell>
        <mxCell id="-fAjT1t3zxda8JAW4F-a-13" value="requisition&lt;div&gt;&lt;span style=&quot;background-color: initial;&quot;&gt;(per FEX)&lt;/span&gt;&lt;/div&gt;" style="shape=note;whiteSpace=wrap;html=1;backgroundOutline=1;darkOpacity=0.05;size=18;" parent="1" vertex="1">
          <mxGeometry x="565" y="730" width="80" height="55" as="geometry" />
        </mxCell>
        <mxCell id="-fAjT1t3zxda8JAW4F-a-18" value="" style="endArrow=classic;html=1;rounded=0;entryX=0;entryY=0.5;entryDx=0;entryDy=0;" parent="1" target="-fAjT1t3zxda8JAW4F-a-7" edge="1">
          <mxGeometry width="50" height="50" relative="1" as="geometry">
            <mxPoint x="335" y="710" as="sourcePoint" />
            <mxPoint x="645" y="590" as="targetPoint" />
          </mxGeometry>
        </mxCell>
        <mxCell id="-fAjT1t3zxda8JAW4F-a-21" value="" style="group" parent="1" vertex="1" connectable="0">
          <mxGeometry x="930" y="344" width="200" height="150" as="geometry" />
        </mxCell>
        <mxCell id="-fAjT1t3zxda8JAW4F-a-2" value="minion" style="rounded=1;whiteSpace=wrap;html=1;" parent="-fAjT1t3zxda8JAW4F-a-21" vertex="1">
          <mxGeometry x="20" y="25" width="120" height="40" as="geometry" />
        </mxCell>
        <mxCell id="-fAjT1t3zxda8JAW4F-a-5" value="minion" style="rounded=1;whiteSpace=wrap;html=1;" parent="-fAjT1t3zxda8JAW4F-a-21" vertex="1">
          <mxGeometry x="20" y="85" width="120" height="40" as="geometry" />
        </mxCell>
        <mxCell id="-fAjT1t3zxda8JAW4F-a-14" value="location : fex1" style="rounded=1;whiteSpace=wrap;html=1;fillColor=none;dashed=1;verticalAlign=bottom;" parent="-fAjT1t3zxda8JAW4F-a-21" vertex="1">
          <mxGeometry width="200" height="150" as="geometry" />
        </mxCell>
        <mxCell id="-fAjT1t3zxda8JAW4F-a-17" value="load balancer&amp;nbsp;&lt;div&gt;syslog, SNMP etc&lt;/div&gt;" style="rounded=1;whiteSpace=wrap;html=1;textDirection=vertical-lr;direction=west;" parent="-fAjT1t3zxda8JAW4F-a-21" vertex="1">
          <mxGeometry x="150" y="25" width="40" height="100" as="geometry" />
        </mxCell>
        <mxCell id="-fAjT1t3zxda8JAW4F-a-27" value="" style="group" parent="1" vertex="1" connectable="0">
          <mxGeometry x="930" y="600" width="200" height="150" as="geometry" />
        </mxCell>
        <mxCell id="-fAjT1t3zxda8JAW4F-a-25" value="location : fex2" style="rounded=1;whiteSpace=wrap;html=1;fillColor=none;dashed=1;verticalAlign=bottom;" parent="-fAjT1t3zxda8JAW4F-a-27" vertex="1">
          <mxGeometry width="200" height="150" as="geometry" />
        </mxCell>
        <mxCell id="-fAjT1t3zxda8JAW4F-a-23" value="minion" style="rounded=1;whiteSpace=wrap;html=1;dashed=1;" parent="-fAjT1t3zxda8JAW4F-a-27" vertex="1">
          <mxGeometry x="20" y="25" width="120" height="40" as="geometry" />
        </mxCell>
        <mxCell id="-fAjT1t3zxda8JAW4F-a-24" value="minion" style="rounded=1;whiteSpace=wrap;html=1;dashed=1;" parent="-fAjT1t3zxda8JAW4F-a-27" vertex="1">
          <mxGeometry x="20" y="85" width="120" height="40" as="geometry" />
        </mxCell>
        <mxCell id="-fAjT1t3zxda8JAW4F-a-26" value="load balancer&amp;nbsp;&lt;div&gt;syslog, SNMP etc&lt;/div&gt;" style="rounded=1;whiteSpace=wrap;html=1;textDirection=vertical-lr;direction=west;dashed=1;" parent="-fAjT1t3zxda8JAW4F-a-27" vertex="1">
          <mxGeometry x="150" y="25" width="40" height="100" as="geometry" />
        </mxCell>
        <mxCell id="-fAjT1t3zxda8JAW4F-a-28" value="" style="endArrow=none;html=1;rounded=0;entryX=0.5;entryY=1;entryDx=0;entryDy=0;exitX=0.5;exitY=0;exitDx=0;exitDy=0;dashed=1;" parent="1" source="-fAjT1t3zxda8JAW4F-a-25" target="-fAjT1t3zxda8JAW4F-a-14" edge="1">
          <mxGeometry width="50" height="50" relative="1" as="geometry">
            <mxPoint x="710" y="530" as="sourcePoint" />
            <mxPoint x="760" y="480" as="targetPoint" />
          </mxGeometry>
        </mxCell>
        <mxCell id="-fAjT1t3zxda8JAW4F-a-31" value="minion kafka topics" style="text;html=1;align=center;verticalAlign=middle;whiteSpace=wrap;rounded=0;" parent="1" vertex="1">
          <mxGeometry x="910" y="530" width="50" height="20" as="geometry" />
        </mxCell>
        <mxCell id="-fAjT1t3zxda8JAW4F-a-37" style="edgeStyle=orthogonalEdgeStyle;rounded=0;orthogonalLoop=1;jettySize=auto;html=1;entryX=0;entryY=0.5;entryDx=0;entryDy=0;" parent="1" target="-fAjT1t3zxda8JAW4F-a-44" edge="1">
          <mxGeometry relative="1" as="geometry">
            <mxPoint x="771.5100000000002" y="507.1199999999999" as="targetPoint" />
            <mxPoint x="584.5" y="511" as="sourcePoint" />
          </mxGeometry>
        </mxCell>
        <mxCell id="-fAjT1t3zxda8JAW4F-a-44" value="&lt;div&gt;Running&lt;/div&gt;&lt;div&gt;config/etc&lt;/div&gt;" style="rounded=1;whiteSpace=wrap;html=1;" parent="1" vertex="1">
          <mxGeometry x="777.5" y="494" width="95" height="30" as="geometry" />
        </mxCell>
        <mxCell id="-fAjT1t3zxda8JAW4F-a-45" value="&lt;div&gt;confd / scripts&lt;/div&gt;" style="rounded=1;whiteSpace=wrap;html=1;" parent="1" vertex="1">
          <mxGeometry x="777.5" y="452" width="95" height="30" as="geometry" />
        </mxCell>
        <mxCell id="-fAjT1t3zxda8JAW4F-a-46" value="confd.yml" style="shape=note;whiteSpace=wrap;html=1;backgroundOutline=1;darkOpacity=0.05;size=9;" parent="1" vertex="1">
          <mxGeometry x="790" y="420" width="70" height="22" as="geometry" />
        </mxCell>
        <mxCell id="-fAjT1t3zxda8JAW4F-a-48" value="" style="endArrow=classic;html=1;rounded=0;" parent="1" edge="1">
          <mxGeometry width="50" height="50" relative="1" as="geometry">
            <mxPoint x="692.5" y="467" as="sourcePoint" />
            <mxPoint x="782.5" y="467" as="targetPoint" />
          </mxGeometry>
        </mxCell>
        <mxCell id="-fAjT1t3zxda8JAW4F-a-49" value="Instance specific properties" style="shape=note;whiteSpace=wrap;html=1;backgroundOutline=1;darkOpacity=0.05;size=18;fontColor=#FF0000;" parent="1" vertex="1">
          <mxGeometry x="632.5" y="420" width="90" height="40" as="geometry" />
        </mxCell>
        <mxCell id="-fAjT1t3zxda8JAW4F-a-56" value="postgres" style="shape=cylinder3;whiteSpace=wrap;html=1;boundedLbl=1;backgroundOutline=1;size=15;" parent="1" vertex="1">
          <mxGeometry x="797.5" y="650" width="55" height="65" as="geometry" />
        </mxCell>
        <mxCell id="-fAjT1t3zxda8JAW4F-a-110" value="captured scenarios / logs / events" style="shape=note;whiteSpace=wrap;html=1;backgroundOutline=1;darkOpacity=0.05;size=9;fontColor=#009900;" parent="1" vertex="1">
          <mxGeometry x="630" y="540" width="72.5" height="50" as="geometry" />
        </mxCell>
        <mxCell id="-fAjT1t3zxda8JAW4F-a-111" value="" style="endArrow=classic;html=1;rounded=0;exitX=0.018;exitY=0.667;exitDx=0;exitDy=0;exitPerimeter=0;entryX=1.048;entryY=0.42;entryDx=0;entryDy=0;entryPerimeter=0;" parent="1" source="-fAjT1t3zxda8JAW4F-a-1" target="-fAjT1t3zxda8JAW4F-a-110" edge="1">
          <mxGeometry width="50" height="50" relative="1" as="geometry">
            <mxPoint x="520" y="350" as="sourcePoint" />
            <mxPoint x="570" y="300" as="targetPoint" />
          </mxGeometry>
        </mxCell>
        <mxCell id="-fAjT1t3zxda8JAW4F-a-117" value="A. Network Configuration is derived from CityFibre inventory and mapped into the internal OpennMS model" style="text;html=1;align=left;verticalAlign=middle;whiteSpace=wrap;rounded=0;fontColor=#FF0000;" parent="1" vertex="1">
          <mxGeometry x="180" y="742.5" width="130" height="30" as="geometry" />
        </mxCell>
        <mxCell id="OR5dX9sXkV009F7Fc0Ry-1" value="Process&lt;div&gt;1. capture syslogs/ SNMP etc to generate events&lt;/div&gt;" style="text;html=1;align=left;verticalAlign=middle;whiteSpace=wrap;rounded=0;" vertex="1" parent="1">
          <mxGeometry x="180" y="90" width="420" height="30" as="geometry" />
        </mxCell>
      </root>
    </mxGraphModel>
  </diagram>
</mxfile>
